<svg width="172" height="43" viewBox="0 0 172 43" fill="none" xmlns="http://www.w3.org/2000/svg">
<path d="M149.761 42.6963H22.2442C16.3451 42.6968 10.6875 40.448 6.51591 36.4448C2.34431 32.4416 0.000466546 27.0117 6.96427e-08 21.3499C-0.000466407 15.688 2.34248 10.2578 6.51342 6.25393C10.6844 2.25005 16.3416 0.000447722 22.2407 0L149.758 0C155.657 0 161.314 2.24918 165.485 6.25273C169.657 10.2563 172 15.6863 172 21.3482C172 27.0101 169.657 32.44 165.485 36.4436C161.314 40.4472 155.657 42.6963 149.758 42.6963H149.761ZM22.2407 1.31337C16.7375 1.36185 11.4769 3.4941 7.60328 7.24625C3.72968 10.9984 1.55649 16.0669 1.55649 21.349C1.55649 26.6312 3.72968 31.6996 7.60328 35.4518C11.4769 39.2039 16.7375 41.3362 22.2407 41.3847H149.758C155.261 41.3362 160.521 39.2039 164.395 35.4518C168.269 31.6996 170.442 26.6312 170.442 21.349C170.442 16.0669 168.269 10.9984 164.395 7.24625C160.521 3.4941 155.261 1.36185 149.758 1.31337H22.2407Z" fill="#263238"/>
<path d="M149.762 0.65625H22.2419C10.3356 0.65625 0.683594 9.92014 0.683594 21.3477V21.3494C0.683594 32.777 10.3356 42.0409 22.2419 42.0409H149.762C161.668 42.0409 171.32 32.777 171.32 21.3494V21.3477C171.32 9.92014 161.668 0.65625 149.762 0.65625Z" fill="#670B78"/>
<path d="M23.1032 10.23C21.9885 10.2335 20.9206 10.6601 20.1324 11.4166C19.3442 12.1731 18.8997 13.1981 18.896 14.268V14.3136C16.1452 15.3383 14.1295 17.3522 13.4946 19.7004L13.4102 20.011H14.9157L14.9755 19.8422C15.5384 18.0629 17.0633 16.5757 19.1739 15.7198C19.4494 16.406 19.9149 17.007 20.5201 17.4579C21.1253 17.9088 21.8474 18.1925 22.6083 18.2784C23.3693 18.3643 24.1402 18.2491 24.8379 17.9453C25.5357 17.6415 26.1337 17.1606 26.5675 16.5544C27.0014 15.9483 27.2545 15.24 27.2996 14.5059C27.3448 13.7718 27.1802 13.0398 26.8237 12.3889C26.4671 11.738 25.9321 11.1929 25.2765 10.8124C24.6208 10.432 23.8694 10.2306 23.1032 10.23ZM23.1032 16.9032C22.4517 16.8994 21.8226 16.675 21.3268 16.2694C20.8309 15.8639 20.5001 15.3034 20.3928 14.6867C20.3718 14.5531 20.3612 14.4183 20.3611 14.2832C20.3615 13.7624 20.5227 13.2534 20.8244 12.8206C21.1261 12.3877 21.5548 12.0504 22.0562 11.8514C22.5576 11.6523 23.1092 11.6004 23.6413 11.7022C24.1735 11.804 24.6622 12.055 25.0457 12.4233C25.4293 12.7917 25.6904 13.2609 25.7962 13.7717C25.9019 14.2825 25.8475 14.812 25.6397 15.2931C25.432 15.7742 25.0803 16.1854 24.6291 16.4747C24.178 16.764 23.6476 16.9184 23.105 16.9184L23.1032 16.9032Z" fill="white"/>
<path d="M24.1802 14.2673C24.1805 14.4717 24.1177 14.6716 23.9996 14.8417C23.8816 15.0119 23.7136 15.1445 23.5169 15.223C23.3202 15.3014 23.1038 15.3221 22.8948 15.2825C22.6859 15.2428 22.494 15.1445 22.3432 15.0001C22.1925 14.8557 22.0898 14.6716 22.0482 14.4712C22.0065 14.2707 22.0277 14.0629 22.1091 13.874C22.1905 13.6851 22.3285 13.5237 22.5056 13.4101C22.6826 13.2965 22.8908 13.2358 23.1038 13.2358C23.3888 13.2363 23.6621 13.345 23.8638 13.5383C24.0655 13.7316 24.1792 13.9937 24.1802 14.2673Z" fill="white"/>
<path d="M17.5705 21.3528C17.5696 21.5391 17.4919 21.7174 17.3545 21.849C17.2171 21.9805 17.0311 22.0546 16.8371 22.0551H11.2597C11.1607 22.0597 11.0618 22.045 10.9689 22.0119C10.876 21.9787 10.7911 21.9278 10.7193 21.8622C10.6476 21.7966 10.5904 21.7177 10.5514 21.6303C10.5123 21.5429 10.4922 21.4488 10.4922 21.3536C10.4922 21.2585 10.5123 21.1644 10.5514 21.077C10.5904 20.9895 10.6476 20.9106 10.7193 20.845C10.7911 20.7794 10.876 20.7285 10.9689 20.6954C11.0618 20.6622 11.1607 20.6475 11.2597 20.6522H16.8371C17.031 20.6522 17.217 20.7259 17.3544 20.8572C17.4919 20.9885 17.5696 21.1667 17.5705 21.3528Z" fill="white"/>
<path d="M23.1032 24.3966C22.2523 24.3964 21.4213 24.6438 20.7198 25.1061C20.0184 25.5684 19.4794 26.2239 19.1739 26.9861C17.0633 26.1336 15.5384 24.6396 14.9738 22.8705L14.914 22.7017H13.4102L13.4946 23.014C14.1295 25.3655 16.1452 27.3727 18.896 28.4008V28.4447C18.8967 29.2432 19.1441 30.0236 19.6068 30.6872C20.0695 31.3508 20.7268 31.8678 21.4956 32.1729C22.2644 32.478 23.1102 32.5575 23.9261 32.4013C24.742 32.2452 25.4913 31.8603 26.0794 31.2954C26.6674 30.7306 27.0677 30.0111 27.2298 29.2279C27.3918 28.4447 27.3083 27.6329 26.9898 26.8953C26.6712 26.1576 26.132 25.5272 25.4402 25.0836C24.7484 24.64 23.9351 24.4033 23.1032 24.4033V24.3966ZM23.1032 31.0698C22.3761 31.0689 21.679 30.7913 21.1647 30.298C20.6504 29.8047 20.3608 29.1358 20.3594 28.4379C20.3593 28.3058 20.3693 28.1737 20.3893 28.0429V28.0108C20.4739 27.5148 20.7046 27.0524 21.0542 26.6781C21.4038 26.3039 21.8577 26.0335 22.3623 25.8989C22.8669 25.7643 23.401 25.7712 23.9017 25.9186C24.4024 26.066 24.8486 26.3478 25.1878 26.7308C25.5269 27.1138 25.7448 27.582 25.8156 28.08C25.8865 28.578 25.8074 29.0851 25.5876 29.5413C25.3679 29.9976 25.0167 30.3839 24.5755 30.6548C24.1343 30.9256 23.6216 31.0696 23.0979 31.0698H23.1032Z" fill="white"/>
<path d="M24.1802 28.4381C24.1798 28.6424 24.1164 28.842 23.9979 29.0117C23.8794 29.1813 23.7112 29.3135 23.5145 29.3914C23.3178 29.4694 23.1014 29.4896 22.8927 29.4495C22.684 29.4095 22.4924 29.3109 22.342 29.1664C22.1916 29.0218 22.0893 28.8377 22.0479 28.6374C22.0065 28.437 22.0279 28.2294 22.1094 28.0407C22.191 27.852 22.3289 27.6908 22.5059 27.5773C22.6829 27.4639 22.8909 27.4033 23.1038 27.4033C23.3894 27.4038 23.6632 27.513 23.865 27.707C24.0668 27.901 24.1802 28.164 24.1802 28.4381Z" fill="white"/>
<path d="M45.2779 18.838C45.1942 18.9629 45.0792 19.0656 44.9434 19.1367C44.8075 19.2078 44.6552 19.245 44.5005 19.2449H44.4601C44.2866 19.2448 44.1167 19.1971 43.9705 19.1073C43.8244 19.0176 43.708 18.8896 43.6352 18.7384C43.5104 18.4833 43.3558 18.2426 43.1744 18.021C42.9068 17.6915 42.5847 17.4064 42.2211 17.1769C41.8413 16.9401 41.4261 16.7602 40.9899 16.6435C39.9899 16.3893 38.9382 16.3893 37.9382 16.6435C36.8724 16.9077 35.8877 17.4124 35.066 18.1155C34.6521 18.47 34.2879 18.8746 33.9826 19.3192C33.6746 19.7754 33.4321 20.2694 33.2615 20.7878C33.0847 21.3344 32.9957 21.9037 32.9976 22.476C32.9868 23.0969 33.1064 23.7135 33.3494 24.289C33.5704 24.8071 33.9017 25.2751 34.322 25.6632C34.741 26.0431 35.235 26.3387 35.7749 26.5326C36.3421 26.7397 36.9444 26.8445 37.5513 26.8415C38.0694 26.8418 38.5855 26.7782 39.0868 26.6524C39.5887 26.5263 40.0739 26.345 40.5326 26.1122C40.994 25.8752 41.4259 25.5886 41.82 25.258C42.1465 24.9859 42.4441 24.6834 42.7083 24.3549C42.7859 24.2616 42.8843 24.1864 42.9964 24.1346C43.1084 24.0829 43.2312 24.0561 43.3555 24.0561C43.5103 24.0553 43.662 24.0968 43.7932 24.1757C43.9243 24.2546 44.0293 24.3677 44.096 24.5017C44.1638 24.637 44.1907 24.7878 44.1736 24.9371C44.1565 25.0863 44.0961 25.2279 43.9993 25.3458C43.8146 25.5686 43.6158 25.7847 43.4065 25.994C42.3766 27.0212 41.0834 27.7705 39.6566 28.1667C38.9264 28.3711 38.1695 28.474 37.4088 28.4722C36.5431 28.4804 35.6838 28.3286 34.8778 28.0249C34.138 27.7434 33.4632 27.3246 32.8921 26.7925C32.3355 26.2618 31.8938 25.6308 31.5923 24.9356C31.2796 24.2013 31.1235 23.4143 31.1332 22.6211C31.132 21.9226 31.24 21.2278 31.4534 20.5599C31.6598 19.9064 31.9556 19.282 32.3328 18.703C32.7134 18.1254 33.1684 17.5962 33.6871 17.128C34.2133 16.6531 34.7973 16.241 35.4266 15.9007C36.0613 15.5543 36.7392 15.2866 37.444 15.1039C38.1645 14.9154 38.9081 14.8206 39.6549 14.822C40.3884 14.8168 41.1184 14.9187 41.82 15.1241C42.4656 15.3126 43.0742 15.6024 43.6211 15.9817C44.1442 16.3462 44.5936 16.7993 44.9473 17.3187C45.0982 17.5419 45.2316 17.7755 45.3465 18.0176C45.4074 18.149 45.433 18.2929 45.421 18.4362C45.409 18.5795 45.3598 18.7177 45.2779 18.838Z" fill="white"/>
<path d="M61.8608 21.0274L60.6841 27.422C60.6476 27.6249 60.5375 27.8088 60.3734 27.9414C60.2092 28.0739 60.0016 28.1464 59.7871 28.1462H59.7624C59.6292 28.1462 59.4976 28.1182 59.3768 28.0641C59.256 28.01 59.1491 27.9312 59.0634 27.8333C58.9777 27.7353 58.9155 27.6205 58.881 27.4969C58.8465 27.3734 58.8406 27.2441 58.8637 27.1182L59.9964 20.9936C60.1444 20.2972 60.1776 19.5829 60.0949 18.8767C60.0353 18.3713 59.8301 17.8919 59.5021 17.4924C59.1687 17.1262 58.7357 16.8562 58.2516 16.7125C57.6293 16.528 56.9803 16.4402 56.3292 16.4525C55.6997 16.4532 55.075 16.5577 54.4824 16.7614C53.8843 16.9669 53.3256 17.2658 52.829 17.646C52.3219 18.0381 51.8888 18.5109 51.5486 19.0438C51.189 19.6136 50.9455 20.2437 50.831 20.9007L49.6244 27.4457C49.5777 27.6701 49.4413 27.8681 49.2444 27.9973C49.0475 28.1265 48.8058 28.1766 48.5709 28.1369C48.336 28.0972 48.1267 27.9708 47.9876 27.7849C47.8486 27.5989 47.7909 27.3681 47.8269 27.1418L50.7958 10.9526C50.8168 10.8393 50.8609 10.7311 50.9255 10.6341C50.9901 10.5372 51.0739 10.4534 51.1722 10.3876C51.2706 10.3217 51.3814 10.2751 51.4985 10.2504C51.6156 10.2257 51.7366 10.2234 51.8546 10.2436C51.9727 10.2637 52.0854 10.306 52.1864 10.368C52.2874 10.43 52.3747 10.5105 52.4433 10.6048C52.5119 10.6992 52.5604 10.8056 52.5862 10.918C52.6119 11.0304 52.6144 11.1465 52.5934 11.2598L51.5468 16.8813C52.1247 16.3261 52.7968 15.8694 53.5343 15.5308C54.0212 15.307 54.5311 15.1328 55.0558 15.0108C55.5979 14.8865 56.1534 14.8242 56.7108 14.8252C58.7406 14.8252 60.2197 15.3316 61.108 16.3445C61.9962 17.3574 62.2424 18.9307 61.8608 21.0274Z" fill="white"/>
<path d="M70.1444 11.3221C70.1359 11.4991 70.0867 11.672 70.0002 11.8285C69.92 11.9757 69.8127 12.1079 69.6836 12.2185C69.3855 12.4693 69.0018 12.6063 68.6054 12.6034C68.4509 12.611 68.2964 12.5878 68.1517 12.5352C68.007 12.4826 67.8752 12.4018 67.7647 12.2978C67.6631 12.1996 67.5832 12.0828 67.5297 11.9543C67.4762 11.8258 67.4503 11.6883 67.4534 11.55C67.4542 11.3746 67.4956 11.2016 67.5747 11.0435C67.6549 10.8814 67.7679 10.7362 67.9072 10.6164C68.0518 10.4945 68.2172 10.3975 68.3961 10.3295C68.5824 10.2584 68.7814 10.2228 68.9818 10.2248C69.1374 10.2179 69.2928 10.242 69.4381 10.2958C69.5835 10.3496 69.7156 10.4317 69.8261 10.5371C69.9341 10.6388 70.0183 10.7614 70.0732 10.8967C70.128 11.0321 70.1523 11.1771 70.1444 11.3221Z" fill="white"/>
<path d="M68.8389 16.189L66.7811 27.4202C66.7603 27.534 66.7163 27.6428 66.6517 27.7403C66.5871 27.8379 66.5032 27.9222 66.4046 27.9886C66.306 28.055 66.1948 28.1021 66.0773 28.1272C65.9597 28.1524 65.8382 28.155 65.7196 28.1351C65.601 28.1151 65.4876 28.073 65.386 28.011C65.2844 27.949 65.1965 27.8684 65.1273 27.7738C65.0581 27.6792 65.0091 27.5724 64.9829 27.4596C64.9567 27.3468 64.9539 27.2301 64.9747 27.1163L67.0431 15.8868C67.0786 15.6838 67.1881 15.4995 67.3521 15.3668C67.5161 15.2342 67.7239 15.1618 67.9384 15.1626C68.0716 15.1624 68.2033 15.1903 68.3241 15.2441C68.4449 15.298 68.552 15.3766 68.6378 15.4744C68.7237 15.5722 68.7861 15.6869 68.8209 15.8103C68.8556 15.9338 68.8618 16.063 68.8389 16.189Z" fill="white"/>
<path d="M94.4535 20.9781L93.2715 27.4217C93.2538 27.5374 93.2122 27.6485 93.149 27.7485C93.0858 27.8484 93.0024 27.9352 92.9037 28.0037C92.805 28.0722 92.6929 28.121 92.5742 28.1472C92.4555 28.1734 92.3325 28.1765 92.2126 28.1562C92.0926 28.136 91.9781 28.0929 91.8757 28.0295C91.7734 27.9661 91.6854 27.8836 91.6168 27.7869C91.5483 27.6903 91.5007 27.5814 91.4767 27.4668C91.4528 27.3522 91.453 27.2341 91.4775 27.1196L92.5996 20.995C92.7444 20.311 92.7853 19.6105 92.721 18.9152C92.6759 18.4193 92.5141 17.9396 92.2479 17.5124C92.0152 17.162 91.6816 16.8841 91.2875 16.7122C90.8358 16.5276 90.3484 16.4372 89.8576 16.4472C89.244 16.4457 88.6349 16.548 88.0583 16.7493C87.4925 16.9495 86.9688 17.2457 86.5122 17.6238C86.0386 18.0212 85.64 18.4941 85.3338 19.0216C84.998 19.6066 84.7696 20.2428 84.6584 20.9022L84.6338 21.0423H84.6039L83.436 27.4167C83.4151 27.5305 83.371 27.6393 83.3063 27.7368C83.2416 27.8343 83.1576 27.9186 83.0589 27.9849C82.9603 28.0512 82.849 28.0982 82.7314 28.1232C82.6138 28.1483 82.4923 28.1508 82.3737 28.1308C82.255 28.1107 82.1417 28.0684 82.0401 28.0063C81.9386 27.9442 81.8507 27.8635 81.7816 27.7688C81.7125 27.6741 81.6636 27.5673 81.6375 27.4545C81.6114 27.3416 81.6088 27.225 81.6297 27.1111L82.75 20.995C82.8949 20.311 82.9357 19.6105 82.8714 18.9152C82.8271 18.4191 82.6653 17.9393 82.3983 17.5124C82.1656 17.162 81.832 16.8841 81.4379 16.7122C80.9869 16.5276 80.5 16.4372 80.0098 16.4472C79.3956 16.4456 78.7859 16.5479 78.2087 16.7493C77.6438 16.949 77.1203 17.2434 76.6627 17.6187C76.1862 18.0148 75.7871 18.4893 75.4842 19.0199C75.1492 19.6119 74.9163 20.2521 74.7948 20.9157L73.6023 27.4217C73.5657 27.6249 73.4554 27.8091 73.2909 27.9416C73.1264 28.0742 72.9183 28.1466 72.7035 28.1459C72.5705 28.1454 72.4392 28.117 72.3188 28.0627C72.1984 28.0084 72.0918 27.9296 72.0064 27.8317C71.921 27.7338 71.8588 27.6193 71.8243 27.496C71.7898 27.3727 71.7837 27.2437 71.8065 27.1179L73.8749 15.885C73.9118 15.6826 74.0221 15.4993 74.1862 15.3674C74.3504 15.2355 74.5578 15.1635 74.7719 15.1642H74.8036C74.9374 15.1637 75.0697 15.1916 75.191 15.2459C75.3123 15.3002 75.4196 15.3795 75.5053 15.4782C75.591 15.5769 75.6529 15.6925 75.6867 15.8168C75.7204 15.9411 75.7252 16.071 75.7006 16.1973L75.6161 16.6278C76.1471 16.1514 76.7487 15.7531 77.4014 15.4461C78.3161 15.0262 79.3195 14.8148 80.3334 14.8282C81.4133 14.8282 82.3367 15.073 83.0789 15.5508C83.7555 15.9946 84.2606 16.6401 84.5159 17.3875C84.7677 17.0834 85.0467 16.8009 85.3496 16.5434C85.7582 16.1958 86.2087 15.8965 86.6916 15.6521C87.201 15.3942 87.7399 15.1943 88.2975 15.0561C88.9 14.9069 89.5202 14.8331 90.1425 14.8367C90.8728 14.8244 91.5981 14.9548 92.2742 15.2199C92.8818 15.4674 93.4065 15.8711 93.7904 16.3864C94.1985 16.965 94.4589 17.6278 94.5502 18.321C94.6663 19.206 94.6337 20.1031 94.4535 20.9781Z" fill="white"/>
<path d="M111.631 18.3797C111.329 17.6746 110.881 17.0357 110.314 16.5017C109.747 15.9678 109.073 15.5499 108.333 15.2735C107.525 14.9694 106.664 14.817 105.797 14.8245C105.05 14.8229 104.306 14.9177 103.586 15.1064C102.882 15.2885 102.206 15.5563 101.574 15.9032C100.948 16.2457 100.367 16.6576 99.8413 17.1305C99.3229 17.5997 98.8663 18.1281 98.4817 18.7038C98.1019 19.2815 97.806 19.9063 97.6023 20.5608C97.3938 21.229 97.2884 21.9228 97.2892 22.6203C97.284 23.4101 97.4412 24.1932 97.7518 24.9246C98.0496 25.6246 98.4917 26.2597 99.0516 26.7917C99.6238 27.3252 100.299 27.7466 101.039 28.0325C101.843 28.3369 102.701 28.4888 103.565 28.4798C104.314 28.4815 105.06 28.3873 105.783 28.1996C107.19 27.8359 108.482 27.1448 109.545 26.1873C110.066 25.7177 110.524 25.1868 110.906 24.6072C111.284 24.0286 111.58 23.4041 111.786 22.7503C111.994 22.0821 112.1 21.3882 112.099 20.6908C112.104 19.8982 111.945 19.1125 111.631 18.3797ZM105.681 16.4468C106.312 16.441 106.939 16.5557 107.524 16.7844C108.063 16.9974 108.552 17.312 108.963 17.7095C109.368 18.11 109.686 18.5833 109.9 19.1022C110.13 19.6588 110.245 20.2526 110.24 20.8511C110.246 21.6632 110.06 22.4661 109.696 23.1993C109.342 23.9177 108.85 24.5654 108.245 25.1086C107.638 25.6546 106.93 26.0884 106.159 26.3882C105.384 26.6933 104.554 26.8504 103.716 26.8508C103.086 26.8546 102.461 26.7399 101.876 26.5131C101.339 26.3055 100.851 25.9944 100.444 25.5989C100.036 25.2035 99.7175 24.7321 99.5071 24.2139C99.278 23.6526 99.1634 23.0543 99.1694 22.4515C99.1678 21.9076 99.2508 21.3665 99.4156 20.8461C99.577 20.339 99.8089 19.8552 100.105 19.4078C100.402 18.9622 100.757 18.5544 101.16 18.194C101.564 17.8304 102.011 17.5152 102.494 17.2554C102.977 16.9951 103.492 16.7933 104.027 16.6544C104.566 16.5147 105.122 16.4449 105.681 16.4468Z" fill="white"/>
<path d="M128.572 21.1148L127.418 27.4115C127.397 27.5263 127.353 27.6359 127.288 27.7342C127.223 27.8324 127.138 27.9174 127.039 27.9843C126.939 28.0511 126.827 28.0986 126.709 28.1238C126.59 28.1491 126.468 28.1517 126.348 28.1315C126.229 28.1114 126.114 28.0688 126.012 28.0062C125.91 27.9437 125.821 27.8624 125.751 27.767C125.682 27.6716 125.632 27.564 125.606 27.4503C125.58 27.3366 125.577 27.219 125.598 27.1043L126.704 21.0827C126.852 20.3869 126.885 19.6731 126.801 18.9675C126.741 18.4525 126.541 17.9617 126.221 17.5444C125.902 17.1676 125.479 16.8835 125.002 16.724C124.396 16.528 123.759 16.4344 123.12 16.4471C122.474 16.4483 121.835 16.5627 121.232 16.7847C120.62 17.0115 120.053 17.3356 119.553 17.7436C119.036 18.1695 118.597 18.6743 118.251 19.2376C117.885 19.831 117.637 20.4848 117.52 21.1654L116.366 27.4234C116.328 27.6259 116.217 27.8093 116.053 27.9414C115.889 28.0735 115.681 28.1459 115.467 28.1459C115.334 28.1456 115.202 28.1173 115.082 28.0632C114.961 28.009 114.854 27.9302 114.769 27.8323C114.683 27.7344 114.621 27.6197 114.586 27.4963C114.552 27.3729 114.545 27.2437 114.568 27.1178L116.637 15.8917C116.656 15.7756 116.698 15.6644 116.763 15.5645C116.827 15.4646 116.912 15.3781 117.012 15.31C117.111 15.2419 117.224 15.1937 117.344 15.1681C117.463 15.1425 117.587 15.1401 117.707 15.1611C117.828 15.182 117.943 15.2258 118.045 15.29C118.148 15.3542 118.236 15.4374 118.304 15.5347C118.373 15.632 118.42 15.7415 118.444 15.8568C118.468 15.972 118.468 16.0906 118.443 16.2057L118.32 16.881C118.537 16.6788 118.767 16.4894 119.008 16.3137C119.42 16.0147 119.861 15.7547 120.325 15.5372C120.801 15.313 121.301 15.1393 121.816 15.0189C122.345 14.8935 122.888 14.8306 123.433 14.8316C125.463 14.8316 126.94 15.3599 127.83 16.3981C128.72 17.4363 128.954 19.0181 128.572 21.1148Z" fill="white"/>
<path d="M145.978 18.981C145.759 18.1786 145.353 17.4345 144.791 16.805C144.214 16.1769 143.499 15.6804 142.697 15.3515C141.818 14.9923 140.871 14.8129 139.915 14.8248C138.905 14.8248 137.904 15.0069 136.964 15.3616C136.044 15.7055 135.189 16.1939 134.436 16.8066C133.686 17.423 133.046 18.1522 132.54 18.9658C132.026 19.7824 131.677 20.6842 131.509 21.6246C131.331 22.5116 131.361 23.4258 131.597 24.3003C131.817 25.1091 132.226 25.8595 132.792 26.4949C133.366 27.1274 134.081 27.6287 134.883 27.9618C135.766 28.3251 136.719 28.5063 137.679 28.4936C138.433 28.4948 139.183 28.3931 139.906 28.1914C140.606 27.9914 141.278 27.7078 141.904 27.3474C142.52 26.9964 143.088 26.5753 143.598 26.0931C143.774 25.9243 143.939 25.7554 144.096 25.5782C144.2 25.4643 144.267 25.3239 144.289 25.174C144.311 25.0241 144.287 24.8713 144.221 24.7341C144.154 24.5925 144.046 24.4723 143.91 24.3882C143.774 24.304 143.616 24.2594 143.454 24.2598C143.33 24.2592 143.207 24.2856 143.095 24.3371C142.983 24.3885 142.884 24.4637 142.807 24.5569C142.553 24.8573 142.273 25.1353 141.968 25.3874C141.585 25.7019 141.168 25.9753 140.724 26.2028C140.279 26.4302 139.806 26.6054 139.317 26.7244C138.823 26.8463 138.316 26.9075 137.806 26.9068C137.161 26.9111 136.521 26.7965 135.921 26.5691C135.354 26.3561 134.841 26.0311 134.413 25.6153C133.984 25.1891 133.658 24.6772 133.458 24.1163C133.252 23.5283 133.176 22.9058 133.233 22.288H145.285C145.472 22.2865 145.654 22.2232 145.799 22.1085C145.943 21.9939 146.043 21.8349 146.08 21.6583C146.243 20.769 146.208 19.8565 145.978 18.981ZM139.811 16.3846C140.474 16.376 141.132 16.4948 141.746 16.7341C142.298 16.9509 142.795 17.2797 143.202 17.698C143.603 18.1202 143.907 18.6189 144.094 19.1616C144.267 19.6582 144.351 20.1793 144.344 20.7029C144.344 20.7397 144.329 20.7751 144.302 20.8013C144.275 20.8276 144.238 20.8425 144.2 20.843H133.722C133.699 20.8433 133.675 20.8381 133.655 20.8278C133.634 20.8175 133.616 20.8024 133.602 20.7839C133.59 20.7661 133.581 20.7456 133.579 20.7241C133.576 20.7027 133.579 20.6809 133.587 20.6607C133.783 20.1444 134.047 19.6547 134.375 19.2038C134.782 18.6396 135.277 18.1382 135.841 17.7165C136.406 17.299 137.034 16.9681 137.704 16.7357C138.38 16.5029 139.093 16.3841 139.811 16.3846Z" fill="white"/>
<path d="M161.358 16.447L151.294 32.0842C151.234 32.1769 151.156 32.2573 151.064 32.3209C150.971 32.3845 150.867 32.4301 150.756 32.4549C150.645 32.4797 150.531 32.4834 150.419 32.4657C150.307 32.4481 150.199 32.4093 150.103 32.3518C150.006 32.2943 149.922 32.2191 149.856 32.1305C149.79 32.0419 149.742 31.9416 149.716 31.8354C149.691 31.7292 149.687 31.6191 149.705 31.5115C149.724 31.4039 149.764 31.3008 149.824 31.2081L152.029 27.7998L148.863 16.3204C148.831 16.2035 148.824 16.0817 148.841 15.9619C148.858 15.8421 148.899 15.7267 148.963 15.6223C149.027 15.5179 149.111 15.4265 149.211 15.3534C149.311 15.2803 149.426 15.2268 149.548 15.1961C149.67 15.1654 149.796 15.1581 149.921 15.1744C150.046 15.1908 150.166 15.2307 150.275 15.2916C150.384 15.3526 150.479 15.4336 150.555 15.5298C150.631 15.6261 150.687 15.7359 150.719 15.8528L153.394 25.6693L159.863 15.5625C159.942 15.4408 160.052 15.3403 160.182 15.2706C160.313 15.2009 160.46 15.1642 160.609 15.1641C160.765 15.1644 160.918 15.2045 161.053 15.2803C161.187 15.3561 161.298 15.4649 161.374 15.5954C161.451 15.726 161.489 15.8737 161.486 16.0233C161.484 16.173 161.439 16.3192 161.358 16.447Z" fill="white"/>
</svg>
